<svg width="46" height="27" viewBox="0 0 46 27" fill="none" xmlns="http://www.w3.org/2000/svg">
<path d="M44.2483 3.92764H2.20634C1.74174 3.92764 1.29618 3.75401 0.967664 3.44495C0.639148 3.13588 0.45459 2.7167 0.45459 2.27962C0.45459 1.84253 0.639148 1.42335 0.967664 1.11429C1.29618 0.805223 1.74174 0.631592 2.20634 0.631592H44.2483C44.7128 0.631592 45.1584 0.805223 45.4869 1.11429C45.8154 1.42335 46 1.84253 46 2.27962C46 2.7167 45.8154 3.13588 45.4869 3.44495C45.1584 3.75401 44.7128 3.92764 44.2483 3.92764Z" fill="#BB6BD9"/>
<path d="M44.2483 15.4638H2.20634C1.74174 15.4638 1.29618 15.2901 0.967664 14.9811C0.639148 14.672 0.45459 14.2528 0.45459 13.8157C0.45459 13.3787 0.639148 12.9595 0.967664 12.6504C1.29618 12.3414 1.74174 12.1677 2.20634 12.1677H44.2483C44.7128 12.1677 45.1584 12.3414 45.4869 12.6504C45.8154 12.9595 46 13.3787 46 13.8157C46 14.2528 45.8154 14.672 45.4869 14.9811C45.1584 15.2901 44.7128 15.4638 44.2483 15.4638Z" fill="#BB6BD9"/>
<path d="M44.2483 26.9999H2.20634C1.74174 26.9999 1.29618 26.8263 0.967664 26.5172C0.639148 26.2081 0.45459 25.789 0.45459 25.3519C0.45459 24.9148 0.639148 24.4956 0.967664 24.1866C1.29618 23.8775 1.74174 23.7039 2.20634 23.7039H44.2483C44.7128 23.7039 45.1584 23.8775 45.4869 24.1866C45.8154 24.4956 46 24.9148 46 25.3519C46 25.789 45.8154 26.2081 45.4869 26.5172C45.1584 26.8263 44.7128 26.9999 44.2483 26.9999Z" fill="#BB6BD9"/>
</svg>
